# xmcd
#
# Track frame offsets:
#	150
#	11715
#	20365
#	30116
#	39542
#	53198
#	63608
#	73101
#	84239
#	96022
#	108336
#	117521
#	129837
#	143879
#	155195
#	165612
#	175003
#	185547
#	194468
#	204497
#	214600
#	223107
#	235388
#	245833
#	255486
#	266147
#	276874
#	288031
#	298634
#	308896
#	318285
#	327811
#
# Disc length: 4566 seconds
#
# Revision: 1
# Processed by: cddbd v1.5.2PL0 Copyright (c) Steve Scherf et al.
# Submitted via: audiograbber 1.83.01
#
DISCID=d911d420
DTITLE=Various Artist - Rockin' Hillbilly Vol.9
DYEAR=1900
DGENRE=Country Boogie
TTITLE0=Tex Cherry - Dirty Jim Blues
TTITLE1=Zeke and Red - The World Would be a Better Place
TTITLE2=Jimmy Simpson - I Broke my Heart
TTITLE3=Bob Luce - Hot Shot Baby
TTITLE4=Rusty McDonald - You Got The Right Number
TTITLE5=Bill Carlisle - Rattle Snake Daddy
TTITLE6=Clyde Beavers - Crying For my Baby
TTITLE7=Billy Briggs - Texaco New Mexico Joe
TTITLE8=Tani Allen - Hillbilly Willie Met Kitty From The City
TTITLE9=Little David - Zig Zag Rag
TTITLE10=Hylo Brown - Get Lost You Wolf
TTITLE11=Cliff Shepherd - I Got an Awful Itch
TTITLE12=Wade Holmes - You're Too Tired
TTITLE13=Jimmy Walker - Out of Money, Out of Place
TTITLE14=Zeb Turner - It Just Tears me All to Pieces
TTITLE15=Les Chambers and J. Maphis - Everybody Else Does
TTITLE16=Dick Stratton - Sugar Coated Love
TTITLE17=Curley Coldiron - Too Many Chiefs
TTITLE18=Mel Price - For You my Love
TTITLE19=Jerry Glenn - Too Young to Cut The Mustard
TTITLE20=Billy Stoltz - Gamblin' Man
TTITLE21=Walter Scott - I'm Walkin' Out
TTITLE22=Jimmy Welch - Searight Blues
TTITLE23=Eddie Hazelwood - Texas Oil Man
TTITLE24=Zeke and Red - Get Your Dad Burn Fingers Offa me
TTITLE25=Chuck Mayfield - A Little Bit More
TTITLE26=Ernie Hayes - Cause For Tears
TTITLE27=Dick Stratton - Love, Love, Love
TTITLE28=Ace Ball - One Armed Love
TTITLE29=Glenn Douglas - Let it Roll
TTITLE30=Austin Wood - When my Baby Comes Home
TTITLE31=Louvin Brothers - Is Zat You Myrtle (live)
EXTD=CACT CD 5008\nCactus Records
EXTT0=
EXTT1=
EXTT2=
EXTT3=
EXTT4=
EXTT5=
EXTT6=
EXTT7=
EXTT8=
EXTT9=
EXTT10=
EXTT11=
EXTT12=
EXTT13=
EXTT14=
EXTT15=
EXTT16=
EXTT17=
EXTT18=
EXTT19=
EXTT20=
EXTT21=
EXTT22=
EXTT23=
EXTT24=
EXTT25=
EXTT26=
EXTT27=
EXTT28=
EXTT29=
EXTT30=
EXTT31=
PLAYORDER=
